<svg height="443pt" viewBox="-61 0 443 443.288" width="443pt" xmlns="http://www.w3.org/2000/svg"><path d="M96.145 136v88h32v-56a8 8 0 018-8h48a8 8 0 018 8v56h32v-88a8 8 0 018-8h8.48l-80.48-61.902L79.665 128h8.48a8 8 0 018 8zm0 0"/><path d="M144.145 176h32v48h-32zm0 0"/><path d="M160.145 443.29c30.101-37.587 160-204.33 160-283.29 0-88.367-71.637-160-160-160-88.368 0-160 71.633-160 160 0 78.977 129.894 245.71 160 283.29zM51.265 129.686l104-80a7.995 7.995 0 019.758 0l104 80A8 8 0 01264.145 144h-24v88a8 8 0 01-8 8h-144a8 8 0 01-8-8v-88h-24a8 8 0 01-4.88-14.336zm0 0"/></svg>